<?xml version="1.0" standalone="no"?>
<!DOCTYPE svg PUBLIC "-//W3C//DTD SVG 20010904//EN"
 "http://www.w3.org/TR/2001/REC-SVG-20010904/DTD/svg10.dtd">
<svg version="1.0" xmlns="http://www.w3.org/2000/svg"
 width="230.000000pt" height="210.000000pt" viewBox="0 0 230.000000 210.000000"
 preserveAspectRatio="xMidYMid meet">

<g transform="translate(0.000000,210.000000) scale(0.100000,-0.100000)"
fill="#ffffff" stroke="none">
<path d="M1030 2090 c-186 -36 -356 -164 -437 -330 -60 -125 -77 -207 -70
-338 7 -115 20 -168 63 -256 67 -138 248 -278 413 -321 322 -83 693 153 756
481 8 44 15 99 15 124 0 55 -23 179 -45 240 -43 121 -161 262 -269 323 -120
67 -306 100 -426 77z m295 -68 c126 -47 219 -117 288 -215 40 -56 87 -138 87
-152 0 -3 -58 -5 -129 -5 l-129 0 -64 63 c-76 74 -131 97 -233 97 -91 0 -156
-24 -218 -79 -43 -40 -121 -140 -114 -148 4 -3 35 -9 367 -73 118 -23 247 -48
287 -56 40 -8 84 -14 99 -14 25 0 26 -2 21 -42 -16 -118 -137 -275 -257 -332
-62 -29 -71 -31 -185 -31 -88 1 -133 5 -168 18 -63 22 -142 63 -195 99 -24 17
-45 28 -48 26 -14 -15 153 -140 231 -172 150 -63 377 -27 494 80 105 94 181
245 181 359 l0 50 -67 13 c-100 19 -387 83 -392 88 -2 2 116 4 263 4 245 0
267 -1 273 -17 4 -10 7 -70 7 -133 0 -104 -3 -122 -28 -185 -41 -98 -69 -140
-145 -215 -116 -114 -275 -176 -431 -168 -146 8 -287 70 -395 176 -66 63 -99
112 -124 180 l-19 52 139 0 c86 0 139 -4 139 -10 0 -22 74 -90 128 -116 51
-26 67 -29 157 -29 90 0 106 3 157 28 64 31 120 90 150 155 11 24 18 45 16 46
-1 1 -39 8 -83 15 -97 15 -181 31 -385 73 -85 17 -184 36 -220 43 -76 13 -80
21 -55 101 22 72 82 162 137 207 149 122 336 141 533 52 39 -18 85 -44 103
-60 57 -48 45 -20 -14 34 -163 149 -393 177 -579 71 -135 -77 -246 -254 -257
-410 l-3 -45 50 -12 c56 -13 303 -58 380 -69 40 -5 46 -8 30 -15 -22 -9 -524
-3 -534 6 -14 14 -5 201 12 258 35 114 68 168 157 257 96 97 190 149 310 174
54 10 225 -3 275 -22z"/>
<path d="M663 589 c-80 -24 -111 -137 -54 -201 26 -29 34 -32 87 -33 71 0 108
23 125 77 16 52 4 102 -32 132 -17 14 -36 26 -42 26 -7 0 -21 2 -32 4 -11 3
-34 0 -52 -5z m91 -60 c43 -34 35 -99 -16 -125 -53 -28 -108 6 -108 67 0 42
35 79 75 79 12 0 34 -9 49 -21z"/>
<path d="M1100 538 c-56 -108 -51 -107 -101 -23 -34 57 -49 74 -66 75 -23 0
-23 -2 -23 -115 l0 -115 25 0 c24 0 25 3 25 62 l0 63 35 -53 c20 -28 40 -52
45 -52 6 0 27 26 48 58 l37 57 3 -67 c3 -65 4 -68 28 -68 l25 0 -3 118 c-3
111 -4 117 -24 120 -17 2 -28 -9 -54 -60z"/>
<path d="M1504 585 c-9 -22 2 -30 39 -30 l32 0 5 -95 c5 -89 6 -95 27 -98 22
-3 22 0 25 95 l3 98 38 3 c30 3 37 7 35 20 -5 25 -195 31 -204 7z"/>
<path d="M1780 480 l0 -120 25 0 c22 0 25 4 25 38 0 37 1 38 30 34 20 -3 36
-15 51 -38 14 -24 28 -34 45 -34 31 0 30 14 -1 48 l-25 26 30 28 c75 68 10
138 -127 138 l-53 0 0 -120z m141 70 c23 -13 25 -43 4 -60 -8 -6 -32 -14 -55
-17 l-40 -6 0 47 0 46 36 0 c19 0 44 -5 55 -10z"/>
<path d="M2060 591 c0 -4 20 -39 45 -75 36 -55 45 -76 45 -112 0 -40 2 -44 25
-44 23 0 25 4 25 43 0 33 10 59 45 115 25 40 45 74 45 77 0 3 -10 5 -23 5 -17
0 -31 -14 -56 -55 l-34 -55 -40 55 c-24 31 -49 55 -59 55 -10 0 -18 -4 -18 -9z"/>
<path d="M68 574 c-36 -19 -58 -63 -58 -113 0 -84 89 -133 184 -101 36 12 37
13 34 58 -3 39 -6 47 -23 47 -15 0 -21 -8 -25 -35 -5 -32 -8 -35 -42 -38 -47
-4 -78 27 -78 78 0 58 43 86 104 68 28 -9 39 -9 49 1 9 9 7 16 -13 31 -30 24
-94 25 -132 4z"/>
<path d="M320 475 l0 -115 90 0 c83 0 90 1 90 20 0 18 -7 20 -65 20 l-65 0 0
30 c0 29 1 30 50 30 38 0 50 4 50 15 0 11 -12 15 -50 15 -49 0 -50 1 -50 30 0
29 1 29 62 32 50 2 63 6 66 21 3 15 -6 17 -87 17 l-91 0 0 -115z"/>
<path d="M1270 475 l0 -115 90 0 c83 0 90 1 90 20 0 18 -7 20 -65 20 l-65 0 0
30 c0 30 1 30 55 30 48 0 55 2 55 20 0 18 -7 20 -55 20 -52 0 -55 1 -55 25 0
22 4 24 57 27 46 2 59 7 61 21 3 15 -6 17 -82 17 l-86 0 0 -115z"/>
<path d="M1540 276 c-3 -2 -4 -56 -2 -120 l3 -116 90 0 c81 0 90 2 87 17 -2
14 -17 19 -68 23 -64 5 -65 5 -65 35 0 29 0 29 53 26 47 -2 52 0 52 18 0 19
-6 21 -56 21 -54 0 -55 0 -52 28 3 26 6 27 66 30 53 3 63 6 60 20 -3 14 -17
18 -84 20 -44 1 -82 1 -84 -2z"/>
<path d="M803 263 c-45 -3 -53 -7 -53 -24 0 -15 7 -19 35 -19 l35 0 0 -95 0
-95 26 0 27 0 -6 95 -5 95 39 0 c36 0 40 2 37 23 -3 24 -28 28 -135 20z"/>
<path d="M1010 262 c0 -5 20 -40 45 -78 32 -50 45 -79 45 -106 0 -31 4 -38 20
-38 16 0 20 7 20 38 0 36 10 62 58 145 27 46 27 47 2 47 -11 0 -26 -11 -35
-25 -8 -14 -22 -37 -31 -52 l-17 -26 -21 28 c-11 16 -26 38 -31 50 -11 20 -55
34 -55 17z"/>
<path d="M1302 153 l3 -118 79 2 c43 2 81 5 84 7 2 3 2 12 -1 21 -5 11 -22 15
-67 15 l-61 0 3 95 c3 93 3 95 -20 95 -22 0 -23 -1 -20 -117z"/>
<path d="M520 228 c-11 -18 -20 -36 -20 -39 0 -19 41 -51 80 -62 52 -15 66
-43 26 -53 -14 -3 -40 -1 -58 5 -24 9 -33 8 -40 -1 -13 -21 -10 -25 23 -37 80
-28 153 4 147 63 -3 27 -9 34 -53 51 -66 27 -75 33 -69 50 8 21 37 27 70 15
23 -9 31 -8 41 6 20 27 6 34 -63 34 -62 0 -65 -1 -84 -32z"/>
</g>
</svg>
